<svg width="21" height="24" viewBox="0 0 21 24" fill="none" xmlns="http://www.w3.org/2000/svg">
<path d="M18.5 11.625C18.5 12.3212 18.2234 12.9889 17.7312 13.4812C17.2389 13.9734 16.5712 14.25 15.875 14.25C15.1788 14.25 14.5111 13.9734 14.0188 13.4812C13.5266 12.9889 13.25 12.3212 13.25 11.625C13.25 10.9288 13.5266 10.2611 14.0188 9.76884C14.5111 9.27656 15.1788 9 15.875 9C16.5712 9 17.2389 9.27656 17.7312 9.76884C18.2234 10.2611 18.5 10.9288 18.5 11.625ZM12.5 14.625C12.5 15.1223 12.3025 15.5992 11.9508 15.9508C11.5992 16.3025 11.1223 16.5 10.625 16.5C10.1277 16.5 9.65081 16.3025 9.29917 15.9508C8.94754 15.5992 8.75 15.1223 8.75 14.625C8.75 14.1277 8.94754 13.6508 9.29917 13.2992C9.65081 12.9475 10.1277 12.75 10.625 12.75C11.1223 12.75 11.5992 12.9475 11.9508 13.2992C12.3025 13.6508 12.5 14.1277 12.5 14.625ZM17.75 18C17.75 18.3978 17.592 18.7794 17.3107 19.0607C17.0294 19.342 16.6478 19.5 16.25 19.5C15.8522 19.5 15.4706 19.342 15.1893 19.0607C14.908 18.7794 14.75 18.3978 14.75 18C14.75 17.6022 14.908 17.2206 15.1893 16.9393C15.4706 16.658 15.8522 16.5 16.25 16.5C16.6478 16.5 17.0294 16.658 17.3107 16.9393C17.592 17.2206 17.75 17.6022 17.75 18Z" fill="#1C1C1E"/>
<path d="M19.847 1.326C19.5472 1.04566 19.1863 0.838883 18.7928 0.721997C18.3993 0.60511 17.984 0.581319 17.5798 0.652502C17.1823 0.720002 16.7428 0.804752 16.271 0.909002C12.4888 1.746 6.47 3.903 1.9025 9.459C1.6525 9.762 1.4075 10.0755 1.1675 10.3995C0.695001 11.037 0.547251 11.7945 0.669501 12.5025C0.74523 12.9271 0.913235 13.33 1.16166 13.6826C1.41009 14.0352 1.73288 14.329 2.10725 14.5433L16.25 22.7033C18.251 23.8568 20.75 22.4123 20.75 20.1045V3.4425C20.753 3.04659 20.6744 2.65431 20.5191 2.29015C20.3637 1.92599 20.1349 1.59777 19.847 1.326ZM3.068 10.404C7.34 5.21175 12.992 3.171 16.595 2.37375C17.0049 2.28284 17.4171 2.20206 17.831 2.1315C18.2233 2.06475 18.5698 2.18625 18.8255 2.424C19.079 2.66025 19.25 3.02025 19.25 3.4425V5.265C12.9365 5.52375 7.46225 9.0345 4.45625 14.1668L2.85725 13.2443C2.67353 13.1399 2.51487 12.9966 2.39243 12.8244C2.26999 12.6522 2.18673 12.4553 2.1485 12.2475C2.09225 11.9228 2.15825 11.5875 2.369 11.2995L3.068 10.404ZM19.25 6.7665V20.1045C19.25 21.2595 18.0005 21.9803 17 21.4035L5.756 14.916C8.50175 10.2338 13.4923 7.0245 19.25 6.7665Z" fill="#1C1C1E"/>
</svg>
