<svg xmlns="http://www.w3.org/2000/svg" width="22" height="22" viewBox="0 0 32 32" fill="none">
  <path d="M8.44134 10.6667H23.56C23.9445 10.6666 24.3244 10.7497 24.6738 10.9103C25.0232 11.0708 25.3337 11.305 25.5841 11.5968C25.8345 11.8886 26.0188 12.2311 26.1244 12.6008C26.23 12.9705 26.2544 13.3586 26.196 13.7387L24.5227 24.608C24.3774 25.5526 23.8987 26.414 23.1733 27.0362C22.4479 27.6584 21.5237 28.0003 20.568 28H11.432C10.4765 28 9.55265 27.6579 8.82751 27.0357C8.10238 26.4136 7.6239 25.5524 7.47867 24.608L5.80534 13.7387C5.7469 13.3586 5.77132 12.9705 5.87695 12.6008C5.98257 12.2311 6.16689 11.8886 6.41727 11.5968C6.66764 11.305 6.97816 11.0708 7.32753 10.9103C7.6769 10.7497 8.05685 10.6666 8.44134 10.6667Z" stroke="#1C1C1E" stroke-width="2" stroke-linecap="round" stroke-linejoin="round"/>
  <path d="M12 14.6667V8C12 6.93913 12.4214 5.92172 13.1716 5.17157C13.9217 4.42143 14.9391 4 16 4C17.0609 4 18.0783 4.42143 18.8284 5.17157C19.5786 5.92172 20 6.93913 20 8V14.6667" stroke="#1C1C1E" stroke-width="2" stroke-linecap="round" stroke-linejoin="round"/>
</svg>