<svg xmlns="http://www.w3.org/2000/svg" width="22" height="22" viewBox="0 0 32 32" fill="none">
  <path d="M14.6667 14.6667V10H17.3333V14.6667H22V17.3333H17.3333L17.3327 22H14.666V17.3333H9.99934V14.6667H14.6667Z" fill="#1C1C1E"/>
  <path fill-rule="evenodd" clip-rule="evenodd" d="M9.21533 24.6607C10.8473 26.1347 12.6353 27.352 14.654 28.312C15.7353 28.8253 17.018 28.7787 18.0547 28.1873C19.8033 27.19 21.3253 25.9893 22.7967 24.6607C25.916 21.8433 27.734 17.9667 27.8533 13.878L27.9927 9.11067C28.0087 8.556 27.9933 7.33333 27.9933 7.33333C27.2929 7.22289 26.59 7.1282 25.8853 7.04933C23.7053 6.788 21.5347 6.52867 19.63 5.364L18.272 4.534C17.6952 4.18491 17.0339 4.00037 16.3597 4.00037C15.6855 4.00037 15.0241 4.18491 14.4473 4.534L13.1467 5.32933C10.9687 6.66 8.31467 6.912 5.746 7.156C5.164 7.21133 4.586 7.26667 4.01933 7.33333C4.01933 7.33333 4.00333 8.56333 4.01933 9.126L4.15867 13.878C4.278 17.9667 6.096 21.8433 9.21533 24.6607ZM5.346 8.534C5.346 8.74733 5.348 8.944 5.35267 9.08733L5.49133 13.8393C5.6 17.5527 7.25133 21.09 10.1087 23.6713C11.65 25.0627 13.3307 26.206 15.2267 27.1073C15.5681 27.2681 15.943 27.3449 16.3201 27.3314C16.6973 27.3178 17.0657 27.2142 17.3947 27.0293C19.0313 26.096 20.474 24.962 21.9033 23.6713C24.7607 21.09 26.412 17.5533 26.5207 13.8393L26.66 9.072C26.664 8.92267 26.6667 8.71267 26.6667 8.48867C26.3547 8.44911 26.0369 8.41 25.7133 8.37133L25.6773 8.36733C24.9368 8.28418 24.1983 8.18304 23.4627 8.064C21.9667 7.81067 20.4013 7.398 18.9347 6.502L17.5767 5.67133C17.2092 5.45019 16.7885 5.33334 16.3597 5.33334C15.9308 5.33334 15.5101 5.45019 15.1427 5.67133L13.842 6.46667C12.2953 7.41133 10.5887 7.85933 8.944 8.124C7.924 8.288 6.82533 8.39267 5.79667 8.49133L5.346 8.534Z" fill="#1C1C1E"/>
</svg>