<svg xmlns="http://www.w3.org/2000/svg" width="22" height="22" viewBox="0 0 24 24" fill="none">
  <path d="M19.5 11.625C19.5 12.3212 19.2234 12.9889 18.7312 13.4812C18.2389 13.9734 17.5712 14.25 16.875 14.25C16.1788 14.25 15.5111 13.9734 15.0188 13.4812C14.5266 12.9889 14.25 12.3212 14.25 11.625C14.25 10.9288 14.5266 10.2611 15.0188 9.76884C15.5111 9.27656 16.1788 9 16.875 9C17.5712 9 18.2389 9.27656 18.7312 9.76884C19.2234 10.2611 19.5 10.9288 19.5 11.625ZM13.5 14.625C13.5 15.1223 13.3025 15.5992 12.9508 15.9508C12.5992 16.3025 12.1223 16.5 11.625 16.5C11.1277 16.5 10.6508 16.3025 10.2992 15.9508C9.94754 15.5992 9.75 15.1223 9.75 14.625C9.75 14.1277 9.94754 13.6508 10.2992 13.2992C10.6508 12.9475 11.1277 12.75 11.625 12.75C12.1223 12.75 12.5992 12.9475 12.9508 13.2992C13.3025 13.6508 13.5 14.1277 13.5 14.625ZM18.75 18C18.75 18.3978 18.592 18.7794 18.3107 19.0607C18.0294 19.342 17.6478 19.5 17.25 19.5C16.8522 19.5 16.4706 19.342 16.1893 19.0607C15.908 18.7794 15.75 18.3978 15.75 18C15.75 17.6022 15.908 17.2206 16.1893 16.9393C16.4706 16.658 16.8522 16.5 17.25 16.5C17.6478 16.5 18.0294 16.658 18.3107 16.9393C18.592 17.2206 18.75 17.6022 18.75 18Z" fill="#1C1C1E"/>
  <path d="M20.847 1.326C20.5472 1.04566 20.1863 0.838883 19.7928 0.721997C19.3993 0.60511 18.984 0.581319 18.5798 0.652502C18.1823 0.720002 17.7428 0.804752 17.271 0.909002C13.4888 1.746 7.47 3.903 2.9025 9.459C2.6525 9.762 2.4075 10.0755 2.1675 10.3995C1.695 11.037 1.54725 11.7945 1.6695 12.5025C1.74523 12.9271 1.91324 13.33 2.16166 13.6826C2.41009 14.0352 2.73288 14.329 3.10725 14.5433L17.25 22.7033C19.251 23.8568 21.75 22.4123 21.75 20.1045V3.4425C21.753 3.04659 21.6744 2.65431 21.5191 2.29015C21.3637 1.92599 21.1349 1.59777 20.847 1.326ZM4.068 10.404C8.34 5.21175 13.992 3.171 17.595 2.37375C18.0049 2.28284 18.4171 2.20206 18.831 2.1315C19.2233 2.06475 19.5698 2.18625 19.8255 2.424C20.079 2.66025 20.25 3.02025 20.25 3.4425V5.265C13.9365 5.52375 8.46225 9.0345 5.45625 14.1668L3.85725 13.2443C3.67353 13.1399 3.51487 12.9966 3.39243 12.8244C3.26999 12.6522 3.18673 12.4553 3.1485 12.2475C3.09225 11.9228 3.15825 11.5875 3.369 11.2995L4.068 10.404ZM20.25 6.7665V20.1045C20.25 21.2595 19.0005 21.9803 18 21.4035L6.756 14.916C9.50175 10.2338 14.4923 7.0245 20.25 6.7665Z" fill="#1C1C1E"/>
</svg>