<svg width="22" height="22" viewBox="0 0 22 22" fill="none" xmlns="http://www.w3.org/2000/svg">
<path d="M20.98 21.872L12.6307 13.5227C11.964 14.0907 11.1973 14.5302 10.3307 14.8413C9.464 15.1524 8.59289 15.308 7.71733 15.308C5.58222 15.308 3.77511 14.5689 2.296 13.0907C0.816887 11.6124 0.0773315 9.80578 0.0773315 7.67067C0.0773315 5.53556 0.815998 3.728 2.29333 2.248C3.77066 0.767999 5.57689 0.0271106 7.712 0.0253328C9.84711 0.023555 11.6551 0.763111 13.136 2.244C14.6169 3.72489 15.3573 5.53244 15.3573 7.66667C15.3573 8.59289 15.1933 9.48933 14.8653 10.356C14.5373 11.2227 14.1062 11.964 13.572 12.58L21.9213 20.928L20.98 21.872ZM7.71866 13.9733C9.48755 13.9733 10.9809 13.3644 12.1987 12.1467C13.4164 10.9289 14.0253 9.43511 14.0253 7.66533C14.0253 5.89555 13.4164 4.40222 12.1987 3.18533C10.9809 1.96844 9.48755 1.35956 7.71866 1.35867C5.94978 1.35778 4.456 1.96667 3.23733 3.18533C2.01866 4.404 1.40978 5.89733 1.41066 7.66533C1.41155 9.43333 2.02044 10.9267 3.23733 12.1453C4.45422 13.364 5.94755 13.9729 7.71733 13.972" fill="#B5B5B5"/>
</svg>
