<svg xmlns="http://www.w3.org/2000/svg" width="22" height="22" viewBox="0 0 32 32" fill="none">
  <path d="M10.1547 28V26.6667C9.56178 26.6667 9.05467 26.4556 8.63333 26.0333C8.212 25.6111 8.00089 25.1049 8 24.5147V11.488C8 10.896 8.21111 10.3893 8.63333 9.968C9.05556 9.54666 9.56222 9.33511 10.1533 9.33333H13.2053V6.10266C13.2053 5.82711 13.3076 5.58711 13.512 5.38266C13.7164 5.17822 13.956 5.076 14.2307 5.076H17.7693C18.0449 5.076 18.2849 5.17822 18.4893 5.38266C18.6938 5.58711 18.796 5.82711 18.796 6.10266V9.33333H21.8467C22.4387 9.33333 22.9453 9.54444 23.3667 9.96666C23.788 10.3889 23.9991 10.8956 24 11.4867V24.5133C24 25.1053 23.7889 25.612 23.3667 26.0333C22.9444 26.4547 22.4378 26.6658 21.8467 26.6667V28H20.5133V26.6667H11.4867V28H10.1547ZM14.5387 9.33333H17.4613V6.41066H14.5387V9.33333ZM16 16.5133C17.1778 16.5133 18.328 16.3631 19.4507 16.0627C20.5733 15.7622 21.6453 15.3124 22.6667 14.7133V11.4867C22.6667 11.2476 22.5898 11.0511 22.436 10.8973C22.2822 10.7436 22.0858 10.6667 21.8467 10.6667H10.1533C9.91422 10.6667 9.71778 10.7436 9.564 10.8973C9.41022 11.0511 9.33333 11.248 9.33333 11.488V14.7133C10.3556 15.3133 11.428 15.7631 12.5507 16.0627C13.6733 16.3622 14.8231 16.5124 16 16.5133ZM15.3333 19.18V17.8307C14.2809 17.7542 13.2542 17.5876 12.2533 17.3307C11.2524 17.0738 10.2791 16.7053 9.33333 16.2253V24.5133C9.33333 24.7524 9.41022 24.9489 9.564 25.1027C9.71778 25.2564 9.91467 25.3333 10.1547 25.3333H21.8467C22.0858 25.3333 22.2822 25.2564 22.436 25.1027C22.5898 24.9489 22.6667 24.7524 22.6667 24.5133V16.2253C21.72 16.7053 20.7467 17.0738 19.7467 17.3307C18.7467 17.5876 17.72 17.7542 16.6667 17.8307V19.18H15.3333Z" fill="#1C1C1E"/>
</svg>